<svg xmlns="http://www.w3.org/2000/svg" xmlns:xlink="http://www.w3.org/1999/xlink" viewBox="0 0 160.51 24"><defs><filter id="a" x="-54.19" y="-52" width="200" height="200" name="filter-1"><feOffset result="shadowOffsetOuter1" dy="2" in="SourceAlpha"/><feGaussianBlur result="shadowBlurOuter1" stdDeviation="2" in="shadowOffsetOuter1"/><feColorMatrix result="shadowMatrixOuter1" values="0 0 0 0 0 0 0 0 0 0 0 0 0 0 0 0 0 0 0.05 0" in="shadowBlurOuter1"/><feMerge><feMergeNode in="shadowMatrixOuter1"/><feMergeNode in="SourceGraphic"/></feMerge></filter></defs><title>logo-desktop</title><g style="filter:url(#a)"><path d="M21.66,8.86l-.9.69-1.44,1.12a3.76,3.76,0,0,0-1.53-2.35l2.78-2.14L19.71,5a1.07,1.07,0,0,1,.19-1.49L22,6.32a1.85,1.85,0,0,1,.35,1.39,1.8,1.8,0,0,1-.68,1.15Z" transform="translate(-4.19 -2)" style="fill:#2c2b30"/><path d="M12.87,18.55c3.09-1.62,5.85-2.08,6.54-1,.57.91-.4,2.64-2.3,4.42l1.81,2.93h1.22a1.05,1.05,0,0,1,1,1.06H17.45l-.65-1.06-1-1.7-.41-.66a1.63,1.63,0,0,0,.23-.82A1.57,1.57,0,0,0,14,20.18h-.14l-1-1.64Z" transform="translate(-4.19 -2)" style="fill:#2c2b30"/><path d="M4.23,8.45A1.72,1.72,0,0,1,5.9,7.07a1.59,1.59,0,0,1,.66.14,1.73,1.73,0,0,1,1.05,1.6V17a1,1,0,0,0,2,.45,1,1,0,0,1,0-.1l1-2.45L8.73,8.48h0a.9.9,0,0,1-.06-.22A5.34,5.34,0,0,1,11.53,2L16,3.57a1.05,1.05,0,0,1,.65,1.34L15.5,4.5A.84.84,0,0,0,14.41,5a.86.86,0,0,0,.51,1.1l1.16.42a1,1,0,0,1-1.34.63l-1.22-.46A1.05,1.05,0,0,0,14.2,7.9l2.34.87a2.92,2.92,0,0,1,1.75,2.56v.18H22V10.08c0-.4.49-.75.8-.93L23,9v3.52a1.79,1.79,0,0,1-1.79,1.78H17.09a4.59,4.59,0,0,0-1.06.13h0a4.6,4.6,0,0,0-3.43,4s0,.07,0,.1,0,.23,0,.34a4.64,4.64,0,0,0,1,2.92l.15.17a1.17,1.17,0,0,1,.2.66,1.15,1.15,0,0,1-1.14,1.17,1.11,1.11,0,0,1-.62-.19L9.83,22.26a1.07,1.07,0,0,0-.29,1.62l1,1.06h1.24a1.06,1.06,0,0,1,1,1.06H9.4a1.8,1.8,0,0,0-1.79-1.81V21.1a1.81,1.81,0,0,0,1.44-1.78.62.62,0,0,0,0-.13,1.66,1.66,0,0,1-.32,0,2.14,2.14,0,0,1-1.11-.32A2.17,2.17,0,0,1,6.56,17V8.81a.68.68,0,0,0-1.36,0,1.81,1.81,0,0,1-1,3.3V8.81a1.47,1.47,0,0,1,0-.36Z" transform="translate(-4.19 -2)" style="fill:#2c2b30"/></g><path d="M36.56,10a2.3,2.3,0,0,0-2,1,4.45,4.45,0,0,0-.7,2.68q0,3.58,2.68,3.58a8.59,8.59,0,0,0,2.73-.56v1.9a7.48,7.48,0,0,1-2.94.55,4.46,4.46,0,0,1-3.57-1.42,6,6,0,0,1-1.24-4.06,6.58,6.58,0,0,1,.61-2.93,4.36,4.36,0,0,1,1.74-1.93,5.24,5.24,0,0,1,2.67-.67,7.14,7.14,0,0,1,3.14.76L39,10.71c-.41-.19-.81-.35-1.21-.5A3.7,3.7,0,0,0,36.56,10Z" transform="translate(-4.19 -2)" style="fill:#2c2b30"/><path d="M51.29,13.61A5.79,5.79,0,0,1,50,17.69a4.86,4.86,0,0,1-3.78,1.43,4.86,4.86,0,0,1-3.78-1.43,5.87,5.87,0,0,1-1.31-4.1,5.75,5.75,0,0,1,1.32-4.08A4.93,4.93,0,0,1,46.21,8.1,4.86,4.86,0,0,1,50,9.52,5.8,5.8,0,0,1,51.29,13.61Zm-7.81,0a4.45,4.45,0,0,0,.68,2.7,2.39,2.39,0,0,0,2,.91c1.81,0,2.72-1.21,2.72-3.61S48,10,46.21,10a2.37,2.37,0,0,0-2,.91A4.46,4.46,0,0,0,43.48,13.61Z" transform="translate(-4.19 -2)" style="fill:#2c2b30"/><path d="M53.51,19V8.27h2.27V17.1h4.35V19Z" transform="translate(-4.19 -2)" style="fill:#2c2b30"/><path d="M66.52,19l-2.58-8.4h-.06C64,12.28,64,13.42,64,14v5H62V8.27h3.09l2.53,8.19h0l2.69-8.19h3.09V19H71.32V13.91c0-.24,0-.52,0-.83s0-1.14.1-2.49h-.07L68.6,19Z" transform="translate(-4.19 -2)" style="fill:#2c2b30"/><path d="M82.68,19l-.77-2.54H78L77.23,19H74.78L78.56,8.22h2.78L85.13,19Zm-1.31-4.45c-.72-2.31-1.13-3.61-1.22-3.92S80,10.06,80,9.89c-.16.62-.62,2.17-1.38,4.63Z" transform="translate(-4.19 -2)" style="fill:#2c2b30"/><path d="M88.75,14.87V19H86.48V8.27H89.6a5.35,5.35,0,0,1,3.23.79,2.84,2.84,0,0,1,1,2.41,2.85,2.85,0,0,1-.53,1.69,3.37,3.37,0,0,1-1.47,1.15Q94.29,17.92,95,19H92.51L90,14.87Zm0-1.85h.73a2.79,2.79,0,0,0,1.59-.36,1.28,1.28,0,0,0,.51-1.13,1.16,1.16,0,0,0-.52-1.08,3.13,3.13,0,0,0-1.62-.32h-.69Z" transform="translate(-4.19 -2)" style="fill:#2c2b30"/><path d="M103.24,19l-1.34-3.4H97.61L96.29,19H95L99.27,8.22h1L104.52,19Zm-1.73-4.52-1.24-3.32c-.16-.42-.33-.93-.5-1.55a14.33,14.33,0,0,1-.46,1.55l-1.26,3.32Z" transform="translate(-4.19 -2)" style="fill:#566478"/><path d="M110.58,9.23a3.52,3.52,0,0,0-2.79,1.17,4.76,4.76,0,0,0-1,3.22,4.84,4.84,0,0,0,1,3.25A3.52,3.52,0,0,0,110.57,18a9.53,9.53,0,0,0,2.55-.41V18.7a7.82,7.82,0,0,1-2.74.42,4.65,4.65,0,0,1-3.65-1.43,5.91,5.91,0,0,1-1.29-4.08,6.45,6.45,0,0,1,.62-2.9,4.43,4.43,0,0,1,1.79-1.92,5.39,5.39,0,0,1,2.75-.68,6.63,6.63,0,0,1,2.94.62L113,9.8A5.68,5.68,0,0,0,110.58,9.23Z" transform="translate(-4.19 -2)" style="fill:#566478"/><path d="M122.19,19l-1.33-3.4h-4.29L115.25,19H114l4.23-10.75h1L123.48,19Zm-1.72-4.52-1.25-3.32c-.16-.42-.32-.93-.49-1.55a14.54,14.54,0,0,1-.47,1.55L117,14.45Z" transform="translate(-4.19 -2)" style="fill:#566478"/><path d="M133.5,13.52a5.38,5.38,0,0,1-1.44,4.05,5.67,5.67,0,0,1-4.14,1.4h-3V8.27h3.28a5.24,5.24,0,0,1,3.88,1.38A5.2,5.2,0,0,1,133.5,13.52Zm-1.32,0a4.29,4.29,0,0,0-1.05-3.15A4.2,4.2,0,0,0,128,9.34H126.2V17.9h1.51a4.61,4.61,0,0,0,3.35-1.1A4.32,4.32,0,0,0,132.18,13.56Z" transform="translate(-4.19 -2)" style="fill:#566478"/><path d="M141.86,19h-6V8.27h6v1.1h-4.73v3.45h4.44v1.1h-4.44v3.94h4.73Z" transform="translate(-4.19 -2)" style="fill:#566478"/><path d="M149,19l-3.64-9.49h-.05c.06.75.1,1.65.1,2.68V19h-1.15V8.27h1.87l3.4,8.83h.05L153,8.27h1.86V19h-1.24V12.08c0-.8,0-1.66.1-2.58h-.06L150,19Z" transform="translate(-4.19 -2)" style="fill:#566478"/><path d="M160.5,13.62l2.85-5.35h1.35l-3.57,6.55V19h-1.26V14.88L156.3,8.27h1.36Z" transform="translate(-4.19 -2)" style="fill:#566478"/></svg>